<?xml version="1.0" encoding="UTF-8" standalone="no"?>
<!-- Created with Inkscape (http://www.inkscape.org/) -->

<svg
   xmlns:dc="http://purl.org/dc/elements/1.1/"
   xmlns:cc="http://creativecommons.org/ns#"
   xmlns:rdf="http://www.w3.org/1999/02/22-rdf-syntax-ns#"
   xmlns:svg="http://www.w3.org/2000/svg"
   xmlns="http://www.w3.org/2000/svg"
   xmlns:sodipodi="http://sodipodi.sourceforge.net/DTD/sodipodi-0.dtd"
   xmlns:inkscape="http://www.inkscape.org/namespaces/inkscape"
   width="81"
   height="81"
   viewBox="0 0 21.43125 21.431251"
   version="1.1"
   id="svg8"
   inkscape:version="0.92.3 (2405546, 2018-03-11)"
   sodipodi:docname="icons.svg"
   inkscape:export-filename="C:\Users\Manuel\marvk\images\icons.png"
   inkscape:export-xdpi="96"
   inkscape:export-ydpi="96">
  <defs
     id="defs2" />
  <sodipodi:namedview
     id="base"
     pagecolor="#ffffff"
     bordercolor="#666666"
     borderopacity="1.0"
     inkscape:pageopacity="0.0"
     inkscape:pageshadow="2"
     inkscape:zoom="5.6"
     inkscape:cx="11.483606"
     inkscape:cy="52.175513"
     inkscape:document-units="mm"
     inkscape:current-layer="layer4"
     showgrid="true"
     showguides="true"
     inkscape:guide-bbox="true"
     units="px"
     inkscape:window-width="1920"
     inkscape:window-height="1001"
     inkscape:window-x="-9"
     inkscape:window-y="-9"
     inkscape:window-maximized="1">
    <inkscape:grid
       type="xygrid"
       id="grid873"
       empspacing="3" />
  </sodipodi:namedview>
  <metadata
     id="metadata5">
    <rdf:RDF>
      <cc:Work
         rdf:about="">
        <dc:format>image/svg+xml</dc:format>
        <dc:type
           rdf:resource="http://purl.org/dc/dcmitype/StillImage" />
        <dc:title></dc:title>
      </cc:Work>
    </rdf:RDF>
  </metadata>
  <g
     inkscape:groupmode="layer"
     id="layer4"
     inkscape:label="bg 1" />
  <g
     inkscape:groupmode="layer"
     id="layer2"
     inkscape:label="bg"
     style="display:inline"
     transform="translate(0,-275.56874)">
    <g
       id="g4643">
      <g
         id="g4624">
        <g
           id="g4589">
          <path
             inkscape:connector-curvature="0"
             id="path3732"
             d="m 0.68242814,289.8909 -0.64776685,0.59676 v 5.95244 l 0.63025964,0.52522 H 6.5998659 l 0.5092228,-0.57774 v -5.8474 l -0.614266,-0.64928 z"
             style="display:inline;fill:#000000;fill-opacity:1;stroke:#000000;stroke-width:0.06932499px;stroke-linecap:butt;stroke-linejoin:miter;stroke-opacity:1" />
          <g
             id="g4613">
            <path
               style="fill:#1b1f24;fill-opacity:1;stroke:none;stroke-width:0.06932499px;stroke-linecap:butt;stroke-linejoin:miter;stroke-opacity:1"
               d="m 0,293.42812 0.03466129,-2.94046 0.64776685,-0.59676 H 6.4948227 l 0.614266,0.64928 0.034661,2.88794 z"
               id="path3737"
               inkscape:connector-curvature="0"
               sodipodi:nodetypes="ccccccc" />
          </g>
        </g>
      </g>
    </g>
    <g
       id="g4630">
      <g
         transform="translate(0,-7.1437425)"
         id="g4595">
        <path
           inkscape:connector-curvature="0"
           id="path4591"
           d="m 0.68242814,289.8909 -0.64776685,0.59676 v 5.95244 l 0.63025964,0.52522 H 6.5998659 l 0.5092228,-0.57774 v -5.8474 l -0.614266,-0.64928 z"
           style="display:inline;fill:#000000;fill-opacity:1;stroke:#000000;stroke-width:0.06932499px;stroke-linecap:butt;stroke-linejoin:miter;stroke-opacity:1" />
        <g
           id="g4610">
          <path
             style="fill:#1b1f24;fill-opacity:1;stroke:none;stroke-width:0.06932499px;stroke-linecap:butt;stroke-linejoin:miter;stroke-opacity:1"
             d="m 0,293.42812 0.03466129,-2.94046 0.64776685,-0.59676 H 6.4948227 l 0.614266,0.64928 0.034661,2.88794 z"
             id="path4593"
             inkscape:connector-curvature="0"
             sodipodi:nodetypes="ccccccc" />
        </g>
      </g>
    </g>
    <g
       id="g4636">
      <g
         id="g4601"
         transform="translate(0,-14.287492)">
        <path
           style="display:inline;fill:#000000;fill-opacity:1;stroke:#000000;stroke-width:0.06932499px;stroke-linecap:butt;stroke-linejoin:miter;stroke-opacity:1"
           d="m 0.68242814,289.8909 -0.64776685,0.59676 v 5.95244 l 0.63025964,0.52522 H 6.5998659 l 0.5092228,-0.57774 v -5.8474 l -0.614266,-0.64928 z"
           id="path4597"
           inkscape:connector-curvature="0" />
        <g
           id="g4616">
          <path
             sodipodi:nodetypes="ccccccc"
             inkscape:connector-curvature="0"
             id="path4599"
             d="m 0,293.42812 0.03466129,-2.94046 0.64776685,-0.59676 H 6.4948227 l 0.614266,0.64928 0.034661,2.88794 z"
             style="fill:#1b1f24;fill-opacity:1;stroke:none;stroke-width:0.06932499px;stroke-linecap:butt;stroke-linejoin:miter;stroke-opacity:1" />
        </g>
      </g>
    </g>
    <path
       style="fill:#e09d55;fill-opacity:0.92156863;stroke:none;stroke-width:0.26458332px;stroke-linecap:butt;stroke-linejoin:miter;stroke-opacity:1"
       d="m 1.5875,291.44374 v 3.96875 l 3.9687499,-1.98438 z"
       id="path4603"
       inkscape:connector-curvature="0" />
    <path
       inkscape:connector-curvature="0"
       id="path4605"
       d="m 1.5875,284.29999 v 3.96875 l 3.9687499,-1.98438 z"
       style="fill:#7d8e99;fill-opacity:0.92156863;stroke:none;stroke-width:0.26458332px;stroke-linecap:butt;stroke-linejoin:miter;stroke-opacity:1" />
    <path
       style="fill:#414346;fill-opacity:0.92156863;stroke:none;stroke-width:0.26458332px;stroke-linecap:butt;stroke-linejoin:miter;stroke-opacity:1"
       d="m 1.5875,277.15624 v 3.96875 l 3.9687499,-1.98438 z"
       id="path4607"
       inkscape:connector-curvature="0" />
    <g
       id="g4655"
       transform="translate(7.1437512)">
      <g
         id="g4653">
        <g
           id="g4651">
          <path
             style="display:inline;fill:#000000;fill-opacity:1;stroke:#000000;stroke-width:0.06932499px;stroke-linecap:butt;stroke-linejoin:miter;stroke-opacity:1"
             d="m 0.68242814,289.8909 -0.64776685,0.59676 v 5.95244 l 0.63025964,0.52522 H 6.5998659 l 0.5092228,-0.57774 v -5.8474 l -0.614266,-0.64928 z"
             id="path4645"
             inkscape:connector-curvature="0" />
          <g
             id="g4649">
            <path
               sodipodi:nodetypes="ccccccc"
               inkscape:connector-curvature="0"
               id="path4647"
               d="m 0,293.42812 0.03466129,-2.94046 0.64776685,-0.59676 H 6.4948227 l 0.614266,0.64928 0.034661,2.88794 z"
               style="fill:#1b1f24;fill-opacity:1;stroke:none;stroke-width:0.06932499px;stroke-linecap:butt;stroke-linejoin:miter;stroke-opacity:1" />
          </g>
        </g>
      </g>
    </g>
    <g
       id="g4665"
       transform="translate(7.1437512)">
      <g
         id="g4663"
         transform="translate(0,-7.1437425)">
        <path
           style="display:inline;fill:#000000;fill-opacity:1;stroke:#000000;stroke-width:0.06932499px;stroke-linecap:butt;stroke-linejoin:miter;stroke-opacity:1"
           d="m 0.68242814,289.8909 -0.64776685,0.59676 v 5.95244 l 0.63025964,0.52522 H 6.5998659 l 0.5092228,-0.57774 v -5.8474 l -0.614266,-0.64928 z"
           id="path4657"
           inkscape:connector-curvature="0" />
        <g
           id="g4661">
          <path
             sodipodi:nodetypes="ccccccc"
             inkscape:connector-curvature="0"
             id="path4659"
             d="m 0,293.42812 0.03466129,-2.94046 0.64776685,-0.59676 H 6.4948227 l 0.614266,0.64928 0.034661,2.88794 z"
             style="fill:#1b1f24;fill-opacity:1;stroke:none;stroke-width:0.06932499px;stroke-linecap:butt;stroke-linejoin:miter;stroke-opacity:1" />
        </g>
      </g>
    </g>
    <g
       id="g4675"
       transform="translate(7.1437512)">
      <g
         transform="translate(0,-14.287492)"
         id="g4673">
        <path
           inkscape:connector-curvature="0"
           id="path4667"
           d="m 0.68242814,289.8909 -0.64776685,0.59676 v 5.95244 l 0.63025964,0.52522 H 6.5998659 l 0.5092228,-0.57774 v -5.8474 l -0.614266,-0.64928 z"
           style="display:inline;fill:#000000;fill-opacity:1;stroke:#000000;stroke-width:0.06932499px;stroke-linecap:butt;stroke-linejoin:miter;stroke-opacity:1" />
        <g
           id="g4671">
          <path
             style="fill:#1b1f24;fill-opacity:1;stroke:none;stroke-width:0.06932499px;stroke-linecap:butt;stroke-linejoin:miter;stroke-opacity:1"
             d="m 0,293.42812 0.03466129,-2.94046 0.64776685,-0.59676 H 6.4948227 l 0.614266,0.64928 0.034661,2.88794 z"
             id="path4669"
             inkscape:connector-curvature="0"
             sodipodi:nodetypes="ccccccc" />
        </g>
      </g>
    </g>
    <path
       style="fill:#e09d55;fill-opacity:0.92156863;stroke:none;stroke-width:0.26458332px;stroke-linecap:butt;stroke-linejoin:miter;stroke-opacity:1"
       d="m 8.7312499,291.44374 v 3.96875 h 1.3229171 v -3.96875 H 8.7312499"
       id="path4677"
       inkscape:connector-curvature="0"
       sodipodi:nodetypes="ccccc" />
    <path
       sodipodi:nodetypes="ccccc"
       inkscape:connector-curvature="0"
       id="path4679"
       d="m 11.377083,291.44374 v 3.96875 H 12.7 v -3.96875 h -1.322917"
       style="fill:#e09d55;fill-opacity:0.92156863;stroke:none;stroke-width:0.26458332px;stroke-linecap:butt;stroke-linejoin:miter;stroke-opacity:1" />
    <path
       sodipodi:nodetypes="ccccc"
       inkscape:connector-curvature="0"
       id="path4681"
       d="m 8.7312499,284.29999 v 3.96875 h 1.3229171 v -3.96875 H 8.7312499"
       style="fill:#7d8e99;fill-opacity:0.92156863;stroke:none;stroke-width:0.26458332px;stroke-linecap:butt;stroke-linejoin:miter;stroke-opacity:1" />
    <path
       style="fill:#7d8e99;fill-opacity:0.92156863;stroke:none;stroke-width:0.26458332px;stroke-linecap:butt;stroke-linejoin:miter;stroke-opacity:1"
       d="m 11.377083,284.29999 v 3.96875 H 12.7 v -3.96875 h -1.322917"
       id="path4683"
       inkscape:connector-curvature="0"
       sodipodi:nodetypes="ccccc" />
    <path
       style="fill:#414346;fill-opacity:0.92156863;stroke:none;stroke-width:0.26458332px;stroke-linecap:butt;stroke-linejoin:miter;stroke-opacity:1"
       d="m 8.7312499,277.15624 v 3.96875 h 1.3229171 v -3.96875 H 8.7312499"
       id="path4685"
       inkscape:connector-curvature="0"
       sodipodi:nodetypes="ccccc" />
    <path
       sodipodi:nodetypes="ccccc"
       inkscape:connector-curvature="0"
       id="path4687"
       d="m 11.377083,277.15624 v 3.96875 H 12.7 v -3.96875 h -1.322917"
       style="fill:#414346;fill-opacity:0.92156863;stroke:none;stroke-width:0.26458332px;stroke-linecap:butt;stroke-linejoin:miter;stroke-opacity:1" />
    <g
       transform="translate(14.287501)"
       id="g4586">
      <g
         id="g4584"
         transform="translate(0,-14.287492)">
        <path
           style="display:inline;fill:#000000;fill-opacity:1;stroke:#000000;stroke-width:0.06932499px;stroke-linecap:butt;stroke-linejoin:miter;stroke-opacity:1"
           d="m 0.68242814,289.8909 -0.64776685,0.59676 v 5.95244 l 0.63025964,0.52522 H 6.5998659 l 0.5092228,-0.57774 v -5.8474 l -0.614266,-0.64928 z"
           id="path4578"
           inkscape:connector-curvature="0" />
        <g
           id="g4582">
          <path
             sodipodi:nodetypes="ccccccc"
             inkscape:connector-curvature="0"
             id="path4580"
             d="m 0,293.42812 0.03466129,-2.94046 0.64776685,-0.59676 H 6.4948227 l 0.614266,0.64928 0.034661,2.88794 z"
             style="fill:#1b1f24;fill-opacity:1;stroke:none;stroke-width:0.06932499px;stroke-linecap:butt;stroke-linejoin:miter;stroke-opacity:1" />
        </g>
      </g>
    </g>
    <g
       id="g4596"
       transform="translate(14.287501,14.2875)">
      <g
         transform="translate(0,-14.287492)"
         id="g4594">
        <path
           inkscape:connector-curvature="0"
           id="path4588"
           d="m 0.68242814,289.8909 -0.64776685,0.59676 v 5.95244 l 0.63025964,0.52522 H 6.5998659 l 0.5092228,-0.57774 v -5.8474 l -0.614266,-0.64928 z"
           style="display:inline;fill:#000000;fill-opacity:1;stroke:#000000;stroke-width:0.06932499px;stroke-linecap:butt;stroke-linejoin:miter;stroke-opacity:1" />
        <g
           id="g4592">
          <path
             style="fill:#1b1f24;fill-opacity:1;stroke:none;stroke-width:0.06932499px;stroke-linecap:butt;stroke-linejoin:miter;stroke-opacity:1"
             d="m 0,293.42812 0.03466129,-2.94046 0.64776685,-0.59676 H 6.4948227 l 0.614266,0.64928 0.034661,2.88794 z"
             id="path4590"
             inkscape:connector-curvature="0"
             sodipodi:nodetypes="ccccccc" />
        </g>
      </g>
    </g>
  </g>
  <g
     inkscape:groupmode="layer"
     id="layer3"
     inkscape:label="Capa 2">
    <path
       style="fill:#e09d55;fill-opacity:0.92156863;stroke:none;stroke-width:0.26458332px;stroke-linecap:butt;stroke-linejoin:miter;stroke-opacity:1"
       d="m 15.875,15.08125 c 0.529166,1.5875 0.79375,3.175 0.79375,3.175 0,0 1.322916,-0.529167 1.852083,-2.38125 -1.058333,0 -2.116666,-1.058333 -2.645833,-0.79375"
       id="path4610"
       inkscape:connector-curvature="0" />
    <path
       style="fill:#e09d55;fill-opacity:0.92156863;stroke:none;stroke-width:0.26458332px;stroke-linecap:butt;stroke-linejoin:miter;stroke-opacity:1"
       d="m 18.785416,15.08125 v 2.116666 L 20.902083,15.875 c 0,0 -0.79375,-0.264584 -0.79375,-0.529167 0,-0.264583 -1.322917,-0.264583 -1.322917,-0.264583 z"
       id="path4612"
       inkscape:connector-curvature="0" />
    <path
       style="fill:#e09d55;fill-opacity:0.92156863;stroke:none;stroke-width:0.26458332px;stroke-linecap:butt;stroke-linejoin:miter;stroke-opacity:1"
       d="m 14.552083,17.197916 c 0.529167,0.264584 0.529167,0.264584 0.79375,0 0.264583,-0.264583 1.322917,1.058334 1.322917,1.322917 0,0.264583 -0.529167,0.264583 -1.058334,0 C 15.08125,18.25625 14.2875,17.197916 14.552083,17.197916 Z"
       id="path4614"
       inkscape:connector-curvature="0" />
    <path
       style="fill:#e09d55;fill-opacity:0.92156863;stroke:none;stroke-width:0.26458332px;stroke-linecap:butt;stroke-linejoin:miter;stroke-opacity:1"
       d="m 15.875,19.314583 c 0,0.264583 0.529166,1.058333 1.852083,0.79375 V 18.25625 h -0.529166 c 0,0 -0.79375,0.793749 -1.322917,1.058333 z"
       id="path4616"
       inkscape:connector-curvature="0" />
    <path
       style="fill:#e09d55;fill-opacity:0.92156863;stroke:none;stroke-width:0.26458332px;stroke-linecap:butt;stroke-linejoin:miter;stroke-opacity:1"
       d="m 18.25625,18.520833 v 1.5875 l 0.264583,0.264583 v 0.79375 H 19.05 l 1.5875,-1.322916 -0.264584,-0.529167 h 0.529167 c 0,0 0.264583,-0.529167 0,-0.529167 -0.264583,0 -1.058333,-0.264583 -1.058333,-0.264583 0,0 -1.5875,0.264583 -1.5875,0"
       id="path4618"
       inkscape:connector-curvature="0" />
    <path
       style="fill:#e09d55;fill-opacity:0.92156863;stroke:none;stroke-width:0.26458332px;stroke-linecap:butt;stroke-linejoin:miter;stroke-opacity:1"
       d="m 19.314583,17.197916 v 0.529167 h 0.529167 l 0.529166,0.79375 h 0.529167 v -1.322917 c 0,0 -0.264583,-0.264583 -0.79375,0 z"
       id="path4620"
       inkscape:connector-curvature="0" />
    <path
       inkscape:connector-curvature="0"
       id="path4622"
       d="m 15.875,0.79375037 c 0.529166,1.58750003 0.79375,3.17500033 0.79375,3.17500033 0,0 1.322916,-0.529167 1.852083,-2.3812503 -1.058333,0 -2.116666,-1.05833303 -2.645833,-0.79375003"
       style="fill:#414346;fill-opacity:0.92156863;stroke:none;stroke-width:0.26458332px;stroke-linecap:butt;stroke-linejoin:miter;stroke-opacity:1" />
    <path
       inkscape:connector-curvature="0"
       id="path4624"
       d="M 18.785416,0.79375037 V 2.9104167 l 2.116667,-1.3229163 c 0,0 -0.79375,-0.264584 -0.79375,-0.529167 0,-0.26458303 -1.322917,-0.26458303 -1.322917,-0.26458303 z"
       style="fill:#414346;fill-opacity:0.92156863;stroke:none;stroke-width:0.26458332px;stroke-linecap:butt;stroke-linejoin:miter;stroke-opacity:1" />
    <path
       inkscape:connector-curvature="0"
       id="path4626"
       d="m 14.552083,2.9104167 c 0.529167,0.264584 0.529167,0.264584 0.79375,0 0.264583,-0.2645833 1.322917,1.058334 1.322917,1.322917 0,0.264583 -0.529167,0.264583 -1.058334,0 C 15.08125,3.9687507 14.2875,2.9104167 14.552083,2.9104167 Z"
       style="fill:#414346;fill-opacity:0.92156863;stroke:none;stroke-width:0.26458332px;stroke-linecap:butt;stroke-linejoin:miter;stroke-opacity:1" />
    <path
       inkscape:connector-curvature="0"
       id="path4628"
       d="m 15.875,5.0270837 c 0,0.264583 0.529166,1.058333 1.852083,0.79375 v -1.852083 h -0.529166 c 0,0 -0.79375,0.793749 -1.322917,1.058333 z"
       style="fill:#414346;fill-opacity:0.92156863;stroke:none;stroke-width:0.26458332px;stroke-linecap:butt;stroke-linejoin:miter;stroke-opacity:1" />
    <path
       inkscape:connector-curvature="0"
       id="path4630"
       d="m 18.25625,4.2333337 v 1.5875 l 0.264583,0.264583 v 0.79375 H 19.05 l 1.5875,-1.322916 -0.264584,-0.529167 h 0.529167 c 0,0 0.264583,-0.529167 0,-0.529167 -0.264583,0 -1.058333,-0.264583 -1.058333,-0.264583 0,0 -1.5875,0.264583 -1.5875,0"
       style="fill:#414346;fill-opacity:0.92156863;stroke:none;stroke-width:0.26458332px;stroke-linecap:butt;stroke-linejoin:miter;stroke-opacity:1" />
    <path
       inkscape:connector-curvature="0"
       id="path4632"
       d="m 19.314583,2.9104167 v 0.529167 h 0.529167 l 0.529166,0.79375 h 0.529167 v -1.322917 c 0,0 -0.264583,-0.2645833 -0.79375,0 z"
       style="fill:#414346;fill-opacity:0.92156863;stroke:none;stroke-width:0.26458332px;stroke-linecap:butt;stroke-linejoin:miter;stroke-opacity:1" />
  </g>
</svg>
