<?xml version="1.0" encoding="UTF-8" standalone="no"?>
<!-- Created with Inkscape (http://www.inkscape.org/) -->

<svg
   xmlns:dc="http://purl.org/dc/elements/1.1/"
   xmlns:cc="http://creativecommons.org/ns#"
   xmlns:rdf="http://www.w3.org/1999/02/22-rdf-syntax-ns#"
   xmlns:svg="http://www.w3.org/2000/svg"
   xmlns="http://www.w3.org/2000/svg"
   xmlns:sodipodi="http://sodipodi.sourceforge.net/DTD/sodipodi-0.dtd"
   xmlns:inkscape="http://www.inkscape.org/namespaces/inkscape"
   width="81"
   height="81"
   viewBox="0 0 21.43125 21.431251"
   version="1.1"
   id="svg8"
   inkscape:version="0.92.3 (2405546, 2018-03-11)"
   sodipodi:docname="icons.svg"
   inkscape:export-filename="C:\Users\Manuel\marvk\images\icons.png"
   inkscape:export-xdpi="96"
   inkscape:export-ydpi="96">
  <defs
     id="defs2" />
  <sodipodi:namedview
     id="base"
     pagecolor="#ffffff"
     bordercolor="#666666"
     borderopacity="1.0"
     inkscape:pageopacity="0.0"
     inkscape:pageshadow="2"
     inkscape:zoom="11.2"
     inkscape:cx="47.674522"
     inkscape:cy="24.375181"
     inkscape:document-units="mm"
     inkscape:current-layer="layer3"
     showgrid="true"
     showguides="true"
     inkscape:guide-bbox="true"
     units="px"
     inkscape:window-width="1920"
     inkscape:window-height="1001"
     inkscape:window-x="-9"
     inkscape:window-y="-9"
     inkscape:window-maximized="1">
    <inkscape:grid
       type="xygrid"
       id="grid873"
       empspacing="3" />
  </sodipodi:namedview>
  <metadata
     id="metadata5">
    <rdf:RDF>
      <cc:Work
         rdf:about="">
        <dc:format>image/svg+xml</dc:format>
        <dc:type
           rdf:resource="http://purl.org/dc/dcmitype/StillImage" />
        <dc:title />
      </cc:Work>
    </rdf:RDF>
  </metadata>
  <g
     inkscape:groupmode="layer"
     id="layer4"
     inkscape:label="bg 1" />
  <g
     inkscape:groupmode="layer"
     id="layer2"
     inkscape:label="bg"
     style="display:inline"
     transform="translate(0,-275.56874)">
    <g
       id="g4643">
      <g
         id="g4624">
        <g
           id="g4589">
          <path
             inkscape:connector-curvature="0"
             id="path3732"
             d="m 0.68242814,289.8909 -0.64776685,0.59676 v 5.95244 l 0.63025964,0.52522 H 6.5998659 l 0.5092228,-0.57774 v -5.8474 l -0.614266,-0.64928 z"
             style="display:inline;fill:#000000;fill-opacity:1;stroke:#000000;stroke-width:0.06932499px;stroke-linecap:butt;stroke-linejoin:miter;stroke-opacity:1" />
          <g
             id="g4613">
            <path
               style="fill:#1b1f24;fill-opacity:1;stroke:none;stroke-width:0.06932499px;stroke-linecap:butt;stroke-linejoin:miter;stroke-opacity:1"
               d="m 0,293.42812 0.03466129,-2.94046 0.64776685,-0.59676 H 6.4948227 l 0.614266,0.64928 0.034661,2.88794 z"
               id="path3737"
               inkscape:connector-curvature="0"
               sodipodi:nodetypes="ccccccc" />
          </g>
        </g>
      </g>
    </g>
    <g
       id="g4630">
      <g
         transform="translate(0,-7.1437425)"
         id="g4595">
        <path
           inkscape:connector-curvature="0"
           id="path4591"
           d="m 0.68242814,289.8909 -0.64776685,0.59676 v 5.95244 l 0.63025964,0.52522 H 6.5998659 l 0.5092228,-0.57774 v -5.8474 l -0.614266,-0.64928 z"
           style="display:inline;fill:#000000;fill-opacity:1;stroke:#000000;stroke-width:0.06932499px;stroke-linecap:butt;stroke-linejoin:miter;stroke-opacity:1" />
        <g
           id="g4610">
          <path
             style="fill:#1b1f24;fill-opacity:1;stroke:none;stroke-width:0.06932499px;stroke-linecap:butt;stroke-linejoin:miter;stroke-opacity:1"
             d="m 0,293.42812 0.03466129,-2.94046 0.64776685,-0.59676 H 6.4948227 l 0.614266,0.64928 0.034661,2.88794 z"
             id="path4593"
             inkscape:connector-curvature="0"
             sodipodi:nodetypes="ccccccc" />
        </g>
      </g>
    </g>
    <g
       id="g4636">
      <g
         id="g4601"
         transform="translate(0,-14.287492)">
        <path
           style="display:inline;fill:#000000;fill-opacity:1;stroke:#000000;stroke-width:0.06932499px;stroke-linecap:butt;stroke-linejoin:miter;stroke-opacity:1"
           d="m 0.68242814,289.8909 -0.64776685,0.59676 v 5.95244 l 0.63025964,0.52522 H 6.5998659 l 0.5092228,-0.57774 v -5.8474 l -0.614266,-0.64928 z"
           id="path4597"
           inkscape:connector-curvature="0" />
        <g
           id="g4616">
          <path
             sodipodi:nodetypes="ccccccc"
             inkscape:connector-curvature="0"
             id="path4599"
             d="m 0,293.42812 0.03466129,-2.94046 0.64776685,-0.59676 H 6.4948227 l 0.614266,0.64928 0.034661,2.88794 z"
             style="fill:#1b1f24;fill-opacity:1;stroke:none;stroke-width:0.06932499px;stroke-linecap:butt;stroke-linejoin:miter;stroke-opacity:1" />
        </g>
      </g>
    </g>
    <path
       style="fill:#e09d55;fill-opacity:0.92156863;stroke:none;stroke-width:0.26458332px;stroke-linecap:butt;stroke-linejoin:miter;stroke-opacity:1"
       d="m 1.5875,291.44374 v 3.96875 l 3.9687499,-1.98438 z"
       id="path4603"
       inkscape:connector-curvature="0" />
    <path
       inkscape:connector-curvature="0"
       id="path4605"
       d="m 1.5875,284.29999 v 3.96875 l 3.9687499,-1.98438 z"
       style="fill:#7d8e99;fill-opacity:0.92156863;stroke:none;stroke-width:0.26458332px;stroke-linecap:butt;stroke-linejoin:miter;stroke-opacity:1" />
    <path
       style="fill:#414346;fill-opacity:0.92156863;stroke:none;stroke-width:0.26458332px;stroke-linecap:butt;stroke-linejoin:miter;stroke-opacity:1"
       d="m 1.5875,277.15624 v 3.96875 l 3.9687499,-1.98438 z"
       id="path4607"
       inkscape:connector-curvature="0" />
    <g
       id="g4655"
       transform="translate(7.1437512)">
      <g
         id="g4653">
        <g
           id="g4651">
          <path
             style="display:inline;fill:#000000;fill-opacity:1;stroke:#000000;stroke-width:0.06932499px;stroke-linecap:butt;stroke-linejoin:miter;stroke-opacity:1"
             d="m 0.68242814,289.8909 -0.64776685,0.59676 v 5.95244 l 0.63025964,0.52522 H 6.5998659 l 0.5092228,-0.57774 v -5.8474 l -0.614266,-0.64928 z"
             id="path4645"
             inkscape:connector-curvature="0" />
          <g
             id="g4649">
            <path
               sodipodi:nodetypes="ccccccc"
               inkscape:connector-curvature="0"
               id="path4647"
               d="m 0,293.42812 0.03466129,-2.94046 0.64776685,-0.59676 H 6.4948227 l 0.614266,0.64928 0.034661,2.88794 z"
               style="fill:#1b1f24;fill-opacity:1;stroke:none;stroke-width:0.06932499px;stroke-linecap:butt;stroke-linejoin:miter;stroke-opacity:1" />
          </g>
        </g>
      </g>
    </g>
    <g
       id="g4665"
       transform="translate(7.1437512)">
      <g
         id="g4663"
         transform="translate(0,-7.1437425)">
        <path
           style="display:inline;fill:#000000;fill-opacity:1;stroke:#000000;stroke-width:0.06932499px;stroke-linecap:butt;stroke-linejoin:miter;stroke-opacity:1"
           d="m 0.68242814,289.8909 -0.64776685,0.59676 v 5.95244 l 0.63025964,0.52522 H 6.5998659 l 0.5092228,-0.57774 v -5.8474 l -0.614266,-0.64928 z"
           id="path4657"
           inkscape:connector-curvature="0" />
        <g
           id="g4661">
          <path
             sodipodi:nodetypes="ccccccc"
             inkscape:connector-curvature="0"
             id="path4659"
             d="m 0,293.42812 0.03466129,-2.94046 0.64776685,-0.59676 H 6.4948227 l 0.614266,0.64928 0.034661,2.88794 z"
             style="fill:#1b1f24;fill-opacity:1;stroke:none;stroke-width:0.06932499px;stroke-linecap:butt;stroke-linejoin:miter;stroke-opacity:1" />
        </g>
      </g>
    </g>
    <g
       id="g4675"
       transform="translate(7.1437512)">
      <g
         transform="translate(0,-14.287492)"
         id="g4673">
        <path
           inkscape:connector-curvature="0"
           id="path4667"
           d="m 0.68242814,289.8909 -0.64776685,0.59676 v 5.95244 l 0.63025964,0.52522 H 6.5998659 l 0.5092228,-0.57774 v -5.8474 l -0.614266,-0.64928 z"
           style="display:inline;fill:#000000;fill-opacity:1;stroke:#000000;stroke-width:0.06932499px;stroke-linecap:butt;stroke-linejoin:miter;stroke-opacity:1" />
        <g
           id="g4671">
          <path
             style="fill:#1b1f24;fill-opacity:1;stroke:none;stroke-width:0.06932499px;stroke-linecap:butt;stroke-linejoin:miter;stroke-opacity:1"
             d="m 0,293.42812 0.03466129,-2.94046 0.64776685,-0.59676 H 6.4948227 l 0.614266,0.64928 0.034661,2.88794 z"
             id="path4669"
             inkscape:connector-curvature="0"
             sodipodi:nodetypes="ccccccc" />
        </g>
      </g>
    </g>
    <path
       style="fill:#e09d55;fill-opacity:0.92156863;stroke:none;stroke-width:0.26458332px;stroke-linecap:butt;stroke-linejoin:miter;stroke-opacity:1"
       d="m 8.7312499,291.44374 v 3.96875 h 1.3229171 v -3.96875 H 8.7312499"
       id="path4677"
       inkscape:connector-curvature="0"
       sodipodi:nodetypes="ccccc" />
    <path
       sodipodi:nodetypes="ccccc"
       inkscape:connector-curvature="0"
       id="path4679"
       d="m 11.377083,291.44374 v 3.96875 H 12.7 v -3.96875 h -1.322917"
       style="fill:#e09d55;fill-opacity:0.92156863;stroke:none;stroke-width:0.26458332px;stroke-linecap:butt;stroke-linejoin:miter;stroke-opacity:1" />
    <path
       sodipodi:nodetypes="ccccc"
       inkscape:connector-curvature="0"
       id="path4681"
       d="m 8.7312499,284.29999 v 3.96875 h 1.3229171 v -3.96875 H 8.7312499"
       style="fill:#7d8e99;fill-opacity:0.92156863;stroke:none;stroke-width:0.26458332px;stroke-linecap:butt;stroke-linejoin:miter;stroke-opacity:1" />
    <path
       style="fill:#7d8e99;fill-opacity:0.92156863;stroke:none;stroke-width:0.26458332px;stroke-linecap:butt;stroke-linejoin:miter;stroke-opacity:1"
       d="m 11.377083,284.29999 v 3.96875 H 12.7 v -3.96875 h -1.322917"
       id="path4683"
       inkscape:connector-curvature="0"
       sodipodi:nodetypes="ccccc" />
    <path
       style="fill:#414346;fill-opacity:0.92156863;stroke:none;stroke-width:0.26458332px;stroke-linecap:butt;stroke-linejoin:miter;stroke-opacity:1"
       d="m 8.7312499,277.15624 v 3.96875 h 1.3229171 v -3.96875 H 8.7312499"
       id="path4685"
       inkscape:connector-curvature="0"
       sodipodi:nodetypes="ccccc" />
    <path
       sodipodi:nodetypes="ccccc"
       inkscape:connector-curvature="0"
       id="path4687"
       d="m 11.377083,277.15624 v 3.96875 H 12.7 v -3.96875 h -1.322917"
       style="fill:#414346;fill-opacity:0.92156863;stroke:none;stroke-width:0.26458332px;stroke-linecap:butt;stroke-linejoin:miter;stroke-opacity:1" />
    <g
       transform="translate(14.287501)"
       id="g4586">
      <g
         id="g4584"
         transform="translate(0,-14.287492)">
        <path
           style="display:inline;fill:#000000;fill-opacity:1;stroke:#000000;stroke-width:0.06932499px;stroke-linecap:butt;stroke-linejoin:miter;stroke-opacity:1"
           d="m 0.68242814,289.8909 -0.64776685,0.59676 v 5.95244 l 0.63025964,0.52522 H 6.5998659 l 0.5092228,-0.57774 v -5.8474 l -0.614266,-0.64928 z"
           id="path4578"
           inkscape:connector-curvature="0" />
        <g
           id="g4582">
          <path
             sodipodi:nodetypes="ccccccc"
             inkscape:connector-curvature="0"
             id="path4580"
             d="m 0,293.42812 0.03466129,-2.94046 0.64776685,-0.59676 H 6.4948227 l 0.614266,0.64928 0.034661,2.88794 z"
             style="fill:#1b1f24;fill-opacity:1;stroke:none;stroke-width:0.06932499px;stroke-linecap:butt;stroke-linejoin:miter;stroke-opacity:1" />
        </g>
      </g>
    </g>
    <g
       id="g4596"
       transform="translate(14.287501,14.2875)">
      <g
         transform="translate(0,-14.287492)"
         id="g4594">
        <path
           inkscape:connector-curvature="0"
           id="path4588"
           d="m 0.68242814,289.8909 -0.64776685,0.59676 v 5.95244 l 0.63025964,0.52522 H 6.5998659 l 0.5092228,-0.57774 v -5.8474 l -0.614266,-0.64928 z"
           style="display:inline;fill:#000000;fill-opacity:1;stroke:#000000;stroke-width:0.06932499px;stroke-linecap:butt;stroke-linejoin:miter;stroke-opacity:1" />
        <g
           id="g4592">
          <path
             style="fill:#1b1f24;fill-opacity:1;stroke:none;stroke-width:0.06932499px;stroke-linecap:butt;stroke-linejoin:miter;stroke-opacity:1"
             d="m 0,293.42812 0.03466129,-2.94046 0.64776685,-0.59676 H 6.4948227 l 0.614266,0.64928 0.034661,2.88794 z"
             id="path4590"
             inkscape:connector-curvature="0"
             sodipodi:nodetypes="ccccccc" />
        </g>
      </g>
    </g>
  </g>
  <g
     inkscape:groupmode="layer"
     id="layer3"
     inkscape:label="Capa 2">
    <path
       inkscape:connector-curvature="0"
       id="path4622"
       d="m 16.139583,1.0583333 c 0.445749,1.344291 0.668624,2.6885823 0.668624,2.6885823 0,0 1.11437,-0.4480973 1.56012,-2.0164367 -0.891498,0 -1.782994,-0.89619366 -2.228744,-0.6721456"
       style="fill:#414346;fill-opacity:0.92156863;stroke:none;stroke-width:0.22346063px;stroke-linecap:butt;stroke-linejoin:miter;stroke-opacity:1" />
    <path
       inkscape:connector-curvature="0"
       id="path4624"
       d="M 18.591201,1.0583333 V 2.850721 l 1.782996,-1.1202421 c 0,0 -0.668624,-0.2240491 -0.668624,-0.4480973 0,-0.2240483 -1.114372,-0.2240483 -1.114372,-0.2240483 z"
       style="fill:#414346;fill-opacity:0.92156863;stroke:none;stroke-width:0.22346063px;stroke-linecap:butt;stroke-linejoin:miter;stroke-opacity:1" />
    <path
       inkscape:connector-curvature="0"
       id="path4626"
       d="m 15.025212,2.850721 c 0.445748,0.224049 0.445748,0.224049 0.668622,0 0.222874,-0.2240485 1.114373,0.8961946 1.114373,1.1202428 0,0.2240481 -0.44575,0.2240481 -0.891499,0 C 15.47096,3.7469156 14.802338,2.850721 15.025212,2.850721 Z"
       style="fill:#414346;fill-opacity:0.92156863;stroke:none;stroke-width:0.22346063px;stroke-linecap:butt;stroke-linejoin:miter;stroke-opacity:1" />
    <path
       inkscape:connector-curvature="0"
       id="path4628"
       d="m 16.139583,4.6431092 c 0,0.2240481 0.445749,0.8961936 1.560121,0.6721454 v -1.568339 h -0.445749 c 0,0 -0.668622,0.6721445 -1.114372,0.8961936 z"
       style="fill:#414346;fill-opacity:0.92156863;stroke:none;stroke-width:0.22346063px;stroke-linecap:butt;stroke-linejoin:miter;stroke-opacity:1" />
    <path
       inkscape:connector-curvature="0"
       id="path4630"
       d="m 18.145453,3.9709638 v 1.3442908 l 0.222874,0.2240482 v 0.6721456 h 0.445749 L 20.151322,5.0912065 19.928448,4.6431092 h 0.445749 c 0,0 0.222872,-0.4480973 0,-0.4480973 -0.222875,0 -0.891499,-0.2240481 -0.891499,-0.2240481 0,0 -1.337245,0.2240481 -1.337245,0"
       style="fill:#414346;fill-opacity:0.92156863;stroke:none;stroke-width:0.22346063px;stroke-linecap:butt;stroke-linejoin:miter;stroke-opacity:1" />
    <path
       inkscape:connector-curvature="0"
       id="path4632"
       d="m 19.036949,2.850721 v 0.4480973 h 0.445749 l 0.44575,0.6721455 h 0.445749 V 2.850721 c 0,0 -0.222875,-0.2240485 -0.668624,0 z"
       style="fill:#414346;fill-opacity:0.92156863;stroke:none;stroke-width:0.22346063px;stroke-linecap:butt;stroke-linejoin:miter;stroke-opacity:1" />
    <path
       style="fill:#d19351;fill-opacity:1;stroke:none;stroke-width:0.22346063px;stroke-linecap:butt;stroke-linejoin:miter;stroke-opacity:1"
       d="m 16.139583,15.345743 c 0.445749,1.344291 0.668624,2.688583 0.668624,2.688583 0,0 1.11437,-0.448098 1.56012,-2.016437 -0.891498,0 -1.782994,-0.896194 -2.228744,-0.672146"
       id="path886"
       inkscape:connector-curvature="0" />
    <path
       style="fill:#d19351;fill-opacity:1;stroke:none;stroke-width:0.22346063px;stroke-linecap:butt;stroke-linejoin:miter;stroke-opacity:1"
       d="m 18.591201,15.345743 v 1.792388 l 1.782996,-1.120242 c 0,0 -0.668624,-0.224049 -0.668624,-0.448097 0,-0.224049 -1.114372,-0.224049 -1.114372,-0.224049 z"
       id="path888"
       inkscape:connector-curvature="0" />
    <path
       style="fill:#d19351;fill-opacity:1;stroke:none;stroke-width:0.22346063px;stroke-linecap:butt;stroke-linejoin:miter;stroke-opacity:1"
       d="m 15.025212,17.138131 c 0.445748,0.224049 0.445748,0.224049 0.668622,0 0.222874,-0.224049 1.114373,0.896195 1.114373,1.120243 0,0.224048 -0.44575,0.224048 -0.891499,0 -0.445748,-0.224048 -1.11437,-1.120243 -0.891496,-1.120243 z"
       id="path890"
       inkscape:connector-curvature="0" />
    <path
       style="fill:#d19351;fill-opacity:1;stroke:none;stroke-width:0.22346063px;stroke-linecap:butt;stroke-linejoin:miter;stroke-opacity:1"
       d="m 16.139583,18.930519 c 0,0.224048 0.445749,0.896194 1.560121,0.672146 v -1.568339 h -0.445749 c 0,0 -0.668622,0.672144 -1.114372,0.896193 z"
       id="path892"
       inkscape:connector-curvature="0" />
    <path
       style="fill:#d19351;fill-opacity:1;stroke:none;stroke-width:0.22346063px;stroke-linecap:butt;stroke-linejoin:miter;stroke-opacity:1"
       d="m 18.145453,18.258374 v 1.344291 l 0.222874,0.224048 v 0.672145 h 0.445749 l 1.337246,-1.120242 -0.222874,-0.448097 h 0.445749 c 0,0 0.222872,-0.448097 0,-0.448097 -0.222875,0 -0.891499,-0.224048 -0.891499,-0.224048 0,0 -1.337245,0.224048 -1.337245,0"
       id="path894"
       inkscape:connector-curvature="0" />
    <path
       style="fill:#d19351;fill-opacity:1;stroke:none;stroke-width:0.22346063px;stroke-linecap:butt;stroke-linejoin:miter;stroke-opacity:1"
       d="m 19.036949,17.138131 v 0.448097 h 0.445749 l 0.44575,0.672146 h 0.445749 v -1.120243 c 0,0 -0.222875,-0.224049 -0.668624,0 z"
       id="path896"
       inkscape:connector-curvature="0" />
  </g>
</svg>
